<svg width="191" height="32" viewBox="0 0 191 32" fill="none" xmlns="http://www.w3.org/2000/svg">
<path fill-rule="evenodd" clip-rule="evenodd" d="M32.326 16.8272C32.3483 16.488 32.3596 16.1458 32.3596 15.8011C32.3596 15.3833 32.343 14.9692 32.3104 14.5596H16.5607C15.9344 14.5596 15.4267 15.0673 15.4267 15.6936C15.4267 16.3198 15.9344 16.8276 16.5607 16.8276H19.3908V16.8272H32.326ZM30.6569 22.8646C30.2535 23.6517 29.7848 24.4012 29.2577 25.1065H17.9932C13.9438 25.1065 10.6611 21.8238 10.6611 17.7744C10.6611 13.725 13.9438 10.4424 17.9932 10.4424H31.4054C31.6716 11.1636 31.8856 11.9092 32.0429 12.6748H16.5607C14.8935 12.6748 13.542 14.0264 13.542 15.6936C13.542 17.3608 14.8935 18.7123 16.5607 18.7123H28.0045V18.7119H32.0856C31.9374 19.4894 31.7308 20.2469 31.4706 20.9799H14.7312V22.8646H30.6569ZM27.6032 26.9912C24.6766 29.8407 20.6388 31.6022 16.1798 31.6022C7.24394 31.6022 0 24.5278 0 15.8011C0 7.0744 7.24394 0 16.1798 0C22.4423 0 27.8738 3.47468 30.5632 8.55764H17.9932C12.9029 8.55764 8.77639 12.6841 8.77639 17.7744C8.77639 22.8647 12.9029 26.9912 17.9932 26.9912H27.6032Z" fill="white"/>
<path d="M38.2073 14.4744C38.2073 18.8062 40.6613 21.1859 46.3875 21.1859C51.5745 21.1859 54.1773 19.1966 54.512 15.4226H51.1097C50.7937 17.542 49.1576 18.3786 46.3875 18.3786C43.0039 18.3786 41.5537 17.1516 41.5537 14.4744C41.5537 11.8158 42.9853 10.6074 46.3875 10.6074C49.1762 10.6074 50.7937 11.4254 51.1097 13.5262H54.512C54.1773 9.77076 51.5745 7.80007 46.3875 7.80007C40.6613 7.80007 38.2073 10.1612 38.2073 14.4744ZM70.6051 7.98598V13.08H60.0079V7.98598H56.6615V21H60.0079V15.9059H70.6051V21H73.9515V7.98598H70.6051ZM89.9294 21H93.6291L86.899 7.98598H82.3813L75.6698 21H79.3509L80.7452 18.2299H88.5351L89.9294 21ZM81.9909 15.7386L84.6494 10.4586L87.2894 15.7386H81.9909ZM98.705 7.98598H95.3586V21H98.705V7.98598ZM114.541 7.98598V17.7651L105.654 7.98598H101.118V21H104.464V11.2395L113.332 21H117.887V7.98598H114.541ZM119.926 16.5195C119.926 20.2749 123.105 21.1859 128.441 21.1859C133.256 21.1859 136.547 20.4794 136.547 17.0028C136.547 13.7122 133.368 13.4333 128.237 13.1544C124.444 12.9313 123.663 12.7454 123.663 11.7415C123.663 10.7747 124.444 10.4586 127.735 10.4586C131.211 10.4586 132.643 10.8119 132.643 12.2434H135.989C135.989 9.0271 133.015 7.80007 128.106 7.80007C123.235 7.80007 120.317 8.71105 120.317 11.5741C120.317 14.493 122.566 15.3854 128.237 15.6457C132.457 15.8502 133.2 16.0361 133.2 17.1144C133.2 18.1369 132.141 18.5273 128.627 18.5273C124.388 18.5273 123.273 17.8952 123.273 16.5195H119.926ZM148.914 7.98598H138.689V21H142.035V17.5234H148.914C151.87 17.5234 153.897 15.6643 153.897 12.764C153.897 9.86372 151.87 7.98598 148.914 7.98598ZM147.985 14.7161H142.035V10.7933H147.985C148.989 10.7933 150.55 10.7933 150.55 12.764C150.55 14.7161 148.989 14.7161 147.985 14.7161ZM163.917 21.1859C169.624 21.1859 172.097 18.7876 172.097 14.4744C172.097 10.1798 169.624 7.80007 163.917 7.80007C158.191 7.80007 155.736 10.1612 155.736 14.4744C155.736 18.8062 158.191 21.1859 163.917 21.1859ZM163.917 18.3786C160.44 18.3786 159.083 17.1516 159.083 14.4744C159.083 11.8158 160.422 10.6074 163.917 10.6074C167.412 10.6074 168.75 11.8344 168.75 14.4744C168.75 17.133 167.393 18.3786 163.917 18.3786ZM189.213 7.98598H173.224V10.7933H179.545V21H182.892V10.7933H189.213V7.98598Z" fill="white"/>
</svg>
